0
SECTION
2
HEADER
9
$INSUNITS
70
4
0
ENDSEC
0
SECTION
2
TABLES
0
TABLE
2
LTYPE
0
LTYPE
72
65
70
64
2
CONTINUOUS
3
______
73
0
40
0
0
ENDTAB
0
TABLE
2
LAYER
0
ENDTAB
0
ENDSEC
0
SECTION
2
ENTITIES
0
LINE
8
0
10
218.3690136
20
-181.9880508
11
208.2071032
21
-192.3108864
0
LINE
8
0
10
198.4503127
20
-193.5944055
11
140.1936479
21
-159.3313281
0
LINE
8
0
10
135.2746687
20
-158.2738065
11
75.8975387
21
-164.719029
0
LINE
8
0
10
67.0938631
20
-157.740701
11
58.8142847
21
-90.3089457
0
LINE
8
0
10
64.2697876
20
-81.7296873
11
132.4865693
21
-59.4384191
0
LINE
8
0
10
136.469975
20
-59.1843276
11
214.1664352
21
-74.0004815
0
LINE
8
0
10
220.6678959
20
-81.858877
11
220.6678959
21
-176.3758091
0
ARC
8
0
10
202.5059855
20
-186.6986447
40
8
50
239.5385113
51
315.4500975
0
ARC
8
0
10
136.1379751
20
-166.227089
40
8
50
59.5385113
51
96.1950404
0
ARC
8
0
10
75.0342323
20
-156.7657466
40
8
50
186.9999972
51
276.1950404
0
ARC
8
0
10
66.7546539
20
-89.3339913
40
8
50
108.0958932
51
186.9999972
0
ARC
8
0
10
134.9714357
20
-67.0427231
40
8
50
79.2037276
51
108.0958932
0
ARC
8
0
10
212.6678959
20
-81.858877
40
8
50
0
51
79.2037276
0
ARC
8
0
10
212.6678959
20
-176.3758091
40
8
50
315.4500975
51
0
0
LINE
8
0
10
70.9763366
20
-161.8314274
11
89.3880677
21
-159.5707511
0
LINE
8
0
10
89.3880677
20
-159.5707511
11
87.1273914
21
-141.15902
0
LINE
8
0
10
87.1273914
20
-141.15902
11
68.7156603
21
-143.4196963
0
LINE
8
0
10
68.7156603
20
-143.4196963
11
70.9763366
21
-161.8314274
0
LINE
8
0
10
68.6547257
20
-142.9234232
11
87.0664568
21
-140.6627469
0
LINE
8
0
10
87.0664568
20
-140.6627469
11
84.8057805
21
-122.2510158
0
LINE
8
0
10
84.8057805
20
-122.2510158
11
66.3940494
21
-124.5116921
0
LINE
8
0
10
66.3940494
20
-124.5116921
11
68.6547257
21
-142.9234232
0
LINE
8
0
10
66.3331147
20
-124.015419
11
84.7448458
21
-121.7547427
0
LINE
8
0
10
84.7448458
20
-121.7547427
11
82.4841695
21
-103.3430116
0
LINE
8
0
10
82.4841695
20
-103.3430116
11
64.0724384
21
-105.6036879
0
LINE
8
0
10
64.0724384
20
-105.6036879
11
66.3331147
21
-124.015419
0
LINE
8
0
10
64.0115037
20
-105.1074148
11
82.4232348
21
-102.8467385
0
LINE
8
0
10
82.4232348
20
-102.8467385
11
80.1625585
21
-84.4350074
0
LINE
8
0
10
80.1625585
20
-84.4350074
11
61.7508274
21
-86.6956837
0
LINE
8
0
10
61.7508274
20
-86.6956837
11
64.0115037
21
-105.1074148
0
LINE
8
0
10
89.9350988
20
-156.3165447
11
108.38348
21
-154.3775417
0
LINE
8
0
10
108.38348
20
-154.3775417
11
106.444477
21
-135.9291605
0
LINE
8
0
10
106.444477
20
-135.9291605
11
87.9960958
21
-137.8681635
0
LINE
8
0
10
87.9960958
20
-137.8681635
11
89.9350988
21
-156.3165447
0
LINE
8
0
10
87.9438315
20
-137.3709026
11
106.3922127
21
-135.4318996
0
LINE
8
0
10
106.3922127
20
-135.4318996
11
104.4532097
21
-116.9835184
0
LINE
8
0
10
104.4532097
20
-116.9835184
11
86.0048285
21
-118.9225214
0
LINE
8
0
10
86.0048285
20
-118.9225214
11
87.9438315
21
-137.3709026
0
LINE
8
0
10
85.9525643
20
-118.4252605
11
104.4009455
21
-116.4862575
0
LINE
8
0
10
104.4009455
20
-116.4862575
11
102.4619425
21
-98.0378763
0
LINE
8
0
10
102.4619425
20
-98.0378763
11
84.0135613
21
-99.9768793
0
LINE
8
0
10
84.0135613
20
-99.9768793
11
85.9525643
21
-118.4252605
0
LINE
8
0
10
83.961297
20
-99.4796184
11
102.4096782
21
-97.5406154
0
LINE
8
0
10
102.4096782
20
-97.5406154
11
100.4706752
21
-79.0922342
0
LINE
8
0
10
100.4706752
20
-79.0922342
11
82.022294
21
-81.0312372
0
LINE
8
0
10
82.022294
20
-81.0312372
11
83.961297
21
-99.4796184
0
LINE
8
0
10
108.8029899
20
-148.974751
11
127.3078031
21
-147.6807684
0
LINE
8
0
10
127.3078031
20
-147.6807684
11
126.0138205
21
-129.1759552
0
LINE
8
0
10
126.0138205
20
-129.1759552
11
107.5090073
21
-130.4699378
0
LINE
8
0
10
107.5090073
20
-130.4699378
11
108.8029899
21
-148.974751
0
LINE
8
0
10
107.4741291
20
-129.9711559
11
125.9789423
21
-128.6771733
0
LINE
8
0
10
125.9789423
20
-128.6771733
11
124.6849597
21
-110.1723601
0
LINE
8
0
10
124.6849597
20
-110.1723601
11
106.1801465
21
-111.4663427
0
LINE
8
0
10
106.1801465
20
-111.4663427
11
107.4741291
21
-129.9711559
0
LINE
8
0
10
106.1452683
20
-110.9675608
11
124.6500815
21
-109.6735782
0
LINE
8
0
10
124.6500815
20
-109.6735782
11
123.3560989
21
-91.168765
0
LINE
8
0
10
123.3560989
20
-91.168765
11
104.8512857
21
-92.4627476
0
LINE
8
0
10
104.8512857
20
-92.4627476
11
106.1452683
21
-110.9675608
0
LINE
8
0
10
104.8164076
20
-91.9639657
11
123.3212208
21
-90.6699831
0
LINE
8
0
10
123.3212208
20
-90.6699831
11
122.0272382
21
-72.1651699
0
LINE
8
0
10
122.0272382
20
-72.1651699
11
103.522425
21
-73.4591525
0
LINE
8
0
10
103.522425
20
-73.4591525
11
104.8164076
21
-91.9639657
0
LINE
8
0
10
128.0453685
20
-141.2843943
11
146.5840684
21
-140.6370086
0
LINE
8
0
10
146.5840684
20
-140.6370086
11
145.9366827
21
-122.0983087
0
LINE
8
0
10
145.9366827
20
-122.0983087
11
127.3979828
21
-122.7456944
0
LINE
8
0
10
127.3979828
20
-122.7456944
11
128.0453685
21
-141.2843943
0
LINE
8
0
10
127.3805331
20
-122.2459991
11
145.919233
21
-121.5986134
0
LINE
8
0
10
145.919233
20
-121.5986134
11
145.2718473
21
-103.0599135
0
LINE
8
0
10
145.2718473
20
-103.0599135
11
126.7331474
21
-103.7072992
0
LINE
8
0
10
126.7331474
20
-103.7072992
11
127.3805331
21
-122.2459991
0
LINE
8
0
10
126.7156977
20
-103.2076038
11
145.2543976
21
-102.5602181
0
LINE
8
0
10
145.2543976
20
-102.5602181
11
144.6070119
21
-84.0215182
0
LINE
8
0
10
144.6070119
20
-84.0215182
11
126.068312
21
-84.6689039
0
LINE
8
0
10
126.068312
20
-84.6689039
11
126.7156977
21
-103.2076038
0
LINE
8
0
10
126.0508622
20
-84.1692086
11
144.5895621
21
-83.5218229
0
LINE
8
0
10
144.5895621
20
-83.5218229
11
143.9421764
21
-64.983123
0
LINE
8
0
10
143.9421764
20
-64.983123
11
125.4034765
21
-65.6305087
0
LINE
8
0
10
125.4034765
20
-65.6305087
11
126.0508622
21
-84.1692086
0
LINE
8
0
10
147.8568151
20
-144.4316182
11
166.4039898
21
-144.1078761
0
LINE
8
0
10
166.4039898
20
-144.1078761
11
166.0802477
21
-125.5607014
0
LINE
8
0
10
166.0802477
20
-125.5607014
11
147.533073
21
-125.8844435
0
LINE
8
0
10
147.533073
20
-125.8844435
11
147.8568151
21
-144.4316182
0
LINE
8
0
10
147.5243467
20
-125.3845197
11
166.0715214
21
-125.0607776
0
LINE
8
0
10
166.0715214
20
-125.0607776
11
165.7477793
21
-106.5136029
0
LINE
8
0
10
165.7477793
20
-106.5136029
11
147.2006046
21
-106.837345
0
LINE
8
0
10
147.2006046
20
-106.837345
11
147.5243467
21
-125.3845197
0
LINE
8
0
10
147.1918784
20
-106.3374211
11
165.7390531
21
-106.013679
0
LINE
8
0
10
165.7390531
20
-106.013679
11
165.415311
21
-87.4665043
0
LINE
8
0
10
165.415311
20
-87.4665043
11
146.8681363
21
-87.7902464
0
LINE
8
0
10
146.8681363
20
-87.7902464
11
147.1918784
21
-106.3374211
0
LINE
8
0
10
146.85941
20
-87.2903225
11
165.4065847
21
-86.9665804
0
LINE
8
0
10
165.4065847
20
-86.9665804
11
165.0828426
21
-68.4194057
0
LINE
8
0
10
165.0828426
20
-68.4194057
11
146.5356679
21
-68.7431478
0
LINE
8
0
10
146.5356679
20
-68.7431478
11
146.85941
21
-87.2903225
0
LINE
8
0
10
167.3928959
20
-146.9277632
11
185.9428959
21
-146.9277632
0
LINE
8
0
10
185.9428959
20
-146.9277632
11
185.9428959
21
-128.3777632
0
LINE
8
0
10
185.9428959
20
-128.3777632
11
167.3928959
21
-128.3777632
0
LINE
8
0
10
167.3928959
20
-128.3777632
11
167.3928959
21
-146.9277632
0
LINE
8
0
10
167.3928959
20
-127.8777631
11
185.9428959
21
-127.8777631
0
LINE
8
0
10
185.9428959
20
-127.8777631
11
185.9428959
21
-109.3277631
0
LINE
8
0
10
185.9428959
20
-109.3277631
11
167.3928959
21
-109.3277631
0
LINE
8
0
10
167.3928959
20
-109.3277631
11
167.3928959
21
-127.8777631
0
LINE
8
0
10
167.3928959
20
-108.8277631
11
185.9428959
21
-108.8277631
0
LINE
8
0
10
185.9428959
20
-108.8277631
11
185.9428959
21
-90.2777631
0
LINE
8
0
10
185.9428959
20
-90.2777631
11
167.3928959
21
-90.2777631
0
LINE
8
0
10
167.3928959
20
-90.2777631
11
167.3928959
21
-108.8277631
0
LINE
8
0
10
167.3928959
20
-89.7777631
11
185.9428959
21
-89.7777631
0
LINE
8
0
10
185.9428959
20
-89.7777631
11
185.9428959
21
-71.2277631
0
LINE
8
0
10
185.9428959
20
-71.2277631
11
167.3928959
21
-71.2277631
0
LINE
8
0
10
167.3928959
20
-71.2277631
11
167.3928959
21
-89.7777631
0
LINE
8
0
10
155.3083872
20
-164.2111786
11
173.2263113
21
-169.0122719
0
LINE
8
0
10
173.2263113
20
-169.0122719
11
178.0274046
21
-151.0943478
0
LINE
8
0
10
178.0274046
20
-151.0943478
11
160.1094805
21
-146.2932545
0
LINE
8
0
10
160.1094805
20
-146.2932545
11
155.3083872
21
-164.2111786
0
LINE
8
0
10
173.9969734
20
-169.2102024
11
190.0617446
21
-178.4852024
0
LINE
8
0
10
190.0617446
20
-178.4852024
11
199.3367446
21
-162.4204312
0
LINE
8
0
10
199.3367446
20
-162.4204312
11
183.2719734
21
-153.1454312
0
LINE
8
0
10
183.2719734
20
-153.1454312
11
173.9969734
21
-169.2102024
0
LINE
8
0
10
190.7124777
20
-178.896491
11
203.8293085
21
-192.0133218
0
LINE
8
0
10
203.8293085
20
-192.0133218
11
216.9461393
21
-178.896491
0
LINE
8
0
10
216.9461393
20
-178.896491
11
203.8293085
21
-165.7796602
0
LINE
8
0
10
203.8293085
20
-165.7796602
11
190.7124777
21
-178.896491
0
ENDSEC
0
EOF