0
SECTION
2
HEADER
9
$INSUNITS
70
4
0
ENDSEC
0
SECTION
2
TABLES
0
TABLE
2
LTYPE
0
LTYPE
72
65
70
64
2
CONTINUOUS
3
______
73
0
40
0
0
ENDTAB
0
TABLE
2
LAYER
0
ENDTAB
0
ENDSEC
0
SECTION
2
ENTITIES
0
LINE
8
0
10
246.4396034
20
-181.9880508
11
256.6015138
21
-192.3108864
0
LINE
8
0
10
266.3583043
20
-193.5944055
11
324.6149691
21
-159.3313281
0
LINE
8
0
10
329.5339483
20
-158.2738065
11
388.9110783
21
-164.719029
0
LINE
8
0
10
397.7147539
20
-157.740701
11
405.9943323
21
-90.3089457
0
LINE
8
0
10
400.5388294
20
-81.7296873
11
332.3220477
21
-59.4384191
0
LINE
8
0
10
328.338642
20
-59.1843276
11
250.6421818
21
-74.0004815
0
LINE
8
0
10
244.1407211
20
-81.858877
11
244.1407211
21
-176.3758091
0
ARC
8
0
10
262.3026315
20
-186.6986447
40
8
50
224.5499025
51
300.4614887
0
ARC
8
0
10
328.6706419
20
-166.227089
40
8
50
83.8049596
51
120.4614887
0
ARC
8
0
10
389.7743847
20
-156.7657466
40
8
50
263.8049596
51
353.0000028
0
ARC
8
0
10
398.0539631
20
-89.3339913
40
8
50
353.0000028
51
71.9041068
0
ARC
8
0
10
329.8371813
20
-67.0427231
40
8
50
71.9041068
51
100.7962724
0
ARC
8
0
10
252.1407211
20
-81.858877
40
8
50
100.7962724
51
180
0
ARC
8
0
10
252.1407211
20
-176.3758091
40
8
50
180
51
224.5499025
0
LINE
8
0
10
375.4205493
20
-159.5707511
11
393.8322804
21
-161.8314274
0
LINE
8
0
10
393.8322804
20
-161.8314274
11
396.0929567
21
-143.4196963
0
LINE
8
0
10
396.0929567
20
-143.4196963
11
377.6812256
21
-141.15902
0
LINE
8
0
10
377.6812256
20
-141.15902
11
375.4205493
21
-159.5707511
0
LINE
8
0
10
377.7421602
20
-140.6627469
11
396.1538913
21
-142.9234232
0
LINE
8
0
10
396.1538913
20
-142.9234232
11
398.4145676
21
-124.5116921
0
LINE
8
0
10
398.4145676
20
-124.5116921
11
380.0028365
21
-122.2510158
0
LINE
8
0
10
380.0028365
20
-122.2510158
11
377.7421602
21
-140.6627469
0
LINE
8
0
10
380.0637712
20
-121.7547427
11
398.4755023
21
-124.015419
0
LINE
8
0
10
398.4755023
20
-124.015419
11
400.7361786
21
-105.6036879
0
LINE
8
0
10
400.7361786
20
-105.6036879
11
382.3244475
21
-103.3430116
0
LINE
8
0
10
382.3244475
20
-103.3430116
11
380.0637712
21
-121.7547427
0
LINE
8
0
10
382.3853822
20
-102.8467385
11
400.7971133
21
-105.1074148
0
LINE
8
0
10
400.7971133
20
-105.1074148
11
403.0577896
21
-86.6956837
0
LINE
8
0
10
403.0577896
20
-86.6956837
11
384.6460585
21
-84.4350074
0
LINE
8
0
10
384.6460585
20
-84.4350074
11
382.3853822
21
-102.8467385
0
LINE
8
0
10
356.425137
20
-154.3775417
11
374.8735182
21
-156.3165447
0
LINE
8
0
10
374.8735182
20
-156.3165447
11
376.8125212
21
-137.8681635
0
LINE
8
0
10
376.8125212
20
-137.8681635
11
358.36414
21
-135.9291605
0
LINE
8
0
10
358.36414
20
-135.9291605
11
356.425137
21
-154.3775417
0
LINE
8
0
10
358.4164043
20
-135.4318996
11
376.8647855
21
-137.3709026
0
LINE
8
0
10
376.8647855
20
-137.3709026
11
378.8037885
21
-118.9225214
0
LINE
8
0
10
378.8037885
20
-118.9225214
11
360.3554073
21
-116.9835184
0
LINE
8
0
10
360.3554073
20
-116.9835184
11
358.4164043
21
-135.4318996
0
LINE
8
0
10
360.4076715
20
-116.4862575
11
378.8560527
21
-118.4252605
0
LINE
8
0
10
378.8560527
20
-118.4252605
11
380.7950557
21
-99.9768793
0
LINE
8
0
10
380.7950557
20
-99.9768793
11
362.3466745
21
-98.0378763
0
LINE
8
0
10
362.3466745
20
-98.0378763
11
360.4076715
21
-116.4862575
0
LINE
8
0
10
362.3989388
20
-97.5406154
11
380.84732
21
-99.4796184
0
LINE
8
0
10
380.84732
20
-99.4796184
11
382.786323
21
-81.0312372
0
LINE
8
0
10
382.786323
20
-81.0312372
11
364.3379418
21
-79.0922342
0
LINE
8
0
10
364.3379418
20
-79.0922342
11
362.3989388
21
-97.5406154
0
LINE
8
0
10
337.5008139
20
-147.6807684
11
356.0056271
21
-148.974751
0
LINE
8
0
10
356.0056271
20
-148.974751
11
357.2996097
21
-130.4699378
0
LINE
8
0
10
357.2996097
20
-130.4699378
11
338.7947965
21
-129.1759552
0
LINE
8
0
10
338.7947965
20
-129.1759552
11
337.5008139
21
-147.6807684
0
LINE
8
0
10
338.8296747
20
-128.6771733
11
357.3344879
21
-129.9711559
0
LINE
8
0
10
357.3344879
20
-129.9711559
11
358.6284705
21
-111.4663427
0
LINE
8
0
10
358.6284705
20
-111.4663427
11
340.1236573
21
-110.1723601
0
LINE
8
0
10
340.1236573
20
-110.1723601
11
338.8296747
21
-128.6771733
0
LINE
8
0
10
340.1585355
20
-109.6735782
11
358.6633487
21
-110.9675608
0
LINE
8
0
10
358.6633487
20
-110.9675608
11
359.9573313
21
-92.4627476
0
LINE
8
0
10
359.9573313
20
-92.4627476
11
341.4525181
21
-91.168765
0
LINE
8
0
10
341.4525181
20
-91.168765
11
340.1585355
21
-109.6735782
0
LINE
8
0
10
341.4873962
20
-90.6699831
11
359.9922094
21
-91.9639657
0
LINE
8
0
10
359.9922094
20
-91.9639657
11
361.286192
21
-73.4591525
0
LINE
8
0
10
361.286192
20
-73.4591525
11
342.7813788
21
-72.1651699
0
LINE
8
0
10
342.7813788
20
-72.1651699
11
341.4873962
21
-90.6699831
0
LINE
8
0
10
318.2245486
20
-140.6370086
11
336.7632485
21
-141.2843943
0
LINE
8
0
10
336.7632485
20
-141.2843943
11
337.4106342
21
-122.7456944
0
LINE
8
0
10
337.4106342
20
-122.7456944
11
318.8719343
21
-122.0983087
0
LINE
8
0
10
318.8719343
20
-122.0983087
11
318.2245486
21
-140.6370086
0
LINE
8
0
10
318.889384
20
-121.5986134
11
337.4280839
21
-122.2459991
0
LINE
8
0
10
337.4280839
20
-122.2459991
11
338.0754696
21
-103.7072992
0
LINE
8
0
10
338.0754696
20
-103.7072992
11
319.5367697
21
-103.0599135
0
LINE
8
0
10
319.5367697
20
-103.0599135
11
318.889384
21
-121.5986134
0
LINE
8
0
10
319.5542194
20
-102.5602181
11
338.0929193
21
-103.2076038
0
LINE
8
0
10
338.0929193
20
-103.2076038
11
338.740305
21
-84.6689039
0
LINE
8
0
10
338.740305
20
-84.6689039
11
320.2016051
21
-84.0215182
0
LINE
8
0
10
320.2016051
20
-84.0215182
11
319.5542194
21
-102.5602181
0
LINE
8
0
10
320.2190549
20
-83.5218229
11
338.7577548
21
-84.1692086
0
LINE
8
0
10
338.7577548
20
-84.1692086
11
339.4051405
21
-65.6305087
0
LINE
8
0
10
339.4051405
20
-65.6305087
11
320.8664406
21
-64.983123
0
LINE
8
0
10
320.8664406
20
-64.983123
11
320.2190549
21
-83.5218229
0
LINE
8
0
10
298.4046272
20
-144.1078761
11
316.9518019
21
-144.4316182
0
LINE
8
0
10
316.9518019
20
-144.4316182
11
317.275544
21
-125.8844435
0
LINE
8
0
10
317.275544
20
-125.8844435
11
298.7283693
21
-125.5607014
0
LINE
8
0
10
298.7283693
20
-125.5607014
11
298.4046272
21
-144.1078761
0
LINE
8
0
10
298.7370956
20
-125.0607776
11
317.2842703
21
-125.3845197
0
LINE
8
0
10
317.2842703
20
-125.3845197
11
317.6080124
21
-106.837345
0
LINE
8
0
10
317.6080124
20
-106.837345
11
299.0608377
21
-106.5136029
0
LINE
8
0
10
299.0608377
20
-106.5136029
11
298.7370956
21
-125.0607776
0
LINE
8
0
10
299.0695639
20
-106.013679
11
317.6167386
21
-106.3374211
0
LINE
8
0
10
317.6167386
20
-106.3374211
11
317.9404807
21
-87.7902464
0
LINE
8
0
10
317.9404807
20
-87.7902464
11
299.393306
21
-87.4665043
0
LINE
8
0
10
299.393306
20
-87.4665043
11
299.0695639
21
-106.013679
0
LINE
8
0
10
299.4020323
20
-86.9665804
11
317.949207
21
-87.2903225
0
LINE
8
0
10
317.949207
20
-87.2903225
11
318.2729491
21
-68.7431478
0
LINE
8
0
10
318.2729491
20
-68.7431478
11
299.7257744
21
-68.4194057
0
LINE
8
0
10
299.7257744
20
-68.4194057
11
299.4020323
21
-86.9665804
0
LINE
8
0
10
278.8657211
20
-146.9277632
11
297.4157211
21
-146.9277632
0
LINE
8
0
10
297.4157211
20
-146.9277632
11
297.4157211
21
-128.3777632
0
LINE
8
0
10
297.4157211
20
-128.3777632
11
278.8657211
21
-128.3777632
0
LINE
8
0
10
278.8657211
20
-128.3777632
11
278.8657211
21
-146.9277632
0
LINE
8
0
10
278.8657211
20
-127.8777631
11
297.4157211
21
-127.8777631
0
LINE
8
0
10
297.4157211
20
-127.8777631
11
297.4157211
21
-109.3277631
0
LINE
8
0
10
297.4157211
20
-109.3277631
11
278.8657211
21
-109.3277631
0
LINE
8
0
10
278.8657211
20
-109.3277631
11
278.8657211
21
-127.8777631
0
LINE
8
0
10
278.8657211
20
-108.8277631
11
297.4157211
21
-108.8277631
0
LINE
8
0
10
297.4157211
20
-108.8277631
11
297.4157211
21
-90.2777631
0
LINE
8
0
10
297.4157211
20
-90.2777631
11
278.8657211
21
-90.2777631
0
LINE
8
0
10
278.8657211
20
-90.2777631
11
278.8657211
21
-108.8277631
0
LINE
8
0
10
278.8657211
20
-89.7777631
11
297.4157211
21
-89.7777631
0
LINE
8
0
10
297.4157211
20
-89.7777631
11
297.4157211
21
-71.2277631
0
LINE
8
0
10
297.4157211
20
-71.2277631
11
278.8657211
21
-71.2277631
0
LINE
8
0
10
278.8657211
20
-71.2277631
11
278.8657211
21
-89.7777631
0
LINE
8
0
10
291.5823057
20
-169.0122719
11
309.5002298
21
-164.2111786
0
LINE
8
0
10
309.5002298
20
-164.2111786
11
304.6991365
21
-146.2932545
0
LINE
8
0
10
304.6991365
20
-146.2932545
11
286.7812124
21
-151.0943478
0
LINE
8
0
10
286.7812124
20
-151.0943478
11
291.5823057
21
-169.0122719
0
LINE
8
0
10
274.7468724
20
-178.4852024
11
290.8116436
21
-169.2102024
0
LINE
8
0
10
290.8116436
20
-169.2102024
11
281.5366436
21
-153.1454312
0
LINE
8
0
10
281.5366436
20
-153.1454312
11
265.4718724
21
-162.4204312
0
LINE
8
0
10
265.4718724
20
-162.4204312
11
274.7468724
21
-178.4852024
0
LINE
8
0
10
260.9793085
20
-192.0133218
11
274.0961393
21
-178.896491
0
LINE
8
0
10
274.0961393
20
-178.896491
11
260.9793085
21
-165.7796602
0
LINE
8
0
10
260.9793085
20
-165.7796602
11
247.8624777
21
-178.896491
0
LINE
8
0
10
247.8624777
20
-178.896491
11
260.9793085
21
-192.0133218
0
ENDSEC
0
EOF