0
SECTION
2
HEADER
9
$INSUNITS
70
4
0
ENDSEC
0
SECTION
2
TABLES
0
TABLE
2
LTYPE
0
LTYPE
72
65
70
64
2
CONTINUOUS
3
______
73
0
40
0
0
ENDTAB
0
TABLE
2
LAYER
0
ENDTAB
0
ENDSEC
0
SECTION
2
ENTITIES
0
LINE
8
0
10
133.3626633
20
-173.2888486
11
150.7322209
21
-171.1561351
0
LINE
8
0
10
150.7322209
20
-171.1561351
11
148.7213767
21
-154.7791236
0
LINE
8
0
10
148.7213767
20
-154.7791236
11
131.3518191
21
-156.9118371
0
LINE
8
0
10
131.3518191
20
-156.9118371
11
133.3626633
21
-173.2888486
0
LINE
8
0
10
131.2908845
20
-156.415564
11
148.6604421
21
-154.2828505
0
LINE
8
0
10
148.6604421
20
-154.2828505
11
146.6495979
21
-137.905839
0
LINE
8
0
10
146.6495979
20
-137.905839
11
129.2800403
21
-140.0385525
0
LINE
8
0
10
129.2800403
20
-140.0385525
11
131.2908845
21
-156.415564
0
LINE
8
0
10
129.2191056
20
-139.5422794
11
146.5886632
21
-137.4095659
0
LINE
8
0
10
146.5886632
20
-137.4095659
11
144.577819
21
-121.0325544
0
LINE
8
0
10
144.577819
20
-121.0325544
11
127.2082614
21
-123.1652679
0
LINE
8
0
10
127.2082614
20
-123.1652679
11
129.2191056
21
-139.5422794
0
LINE
8
0
10
127.1473268
20
-122.6689949
11
144.5168844
21
-120.5362814
0
LINE
8
0
10
144.5168844
20
-120.5362814
11
142.5060402
21
-104.1592699
0
LINE
8
0
10
142.5060402
20
-104.1592699
11
125.1364826
21
-106.2919834
0
LINE
8
0
10
125.1364826
20
-106.2919834
11
127.1473268
21
-122.6689949
0
LINE
8
0
10
151.2980636
20
-167.9090075
11
168.7021968
21
-166.0797594
0
LINE
8
0
10
168.7021968
20
-166.0797594
11
166.9774772
21
-149.6701481
0
LINE
8
0
10
166.9774772
20
-149.6701481
11
149.573344
21
-151.4993962
0
LINE
8
0
10
149.573344
20
-151.4993962
11
151.2980636
21
-167.9090075
0
LINE
8
0
10
149.5210797
20
-151.0021353
11
166.9252129
21
-149.1728872
0
LINE
8
0
10
166.9252129
20
-149.1728872
11
165.2004933
21
-132.7632759
0
LINE
8
0
10
165.2004933
20
-132.7632759
11
147.7963601
21
-134.592524
0
LINE
8
0
10
147.7963601
20
-134.592524
11
149.5210797
21
-151.0021353
0
LINE
8
0
10
147.7440958
20
-134.0952631
11
165.148229
21
-132.266015
0
LINE
8
0
10
165.148229
20
-132.266015
11
163.4235094
21
-115.8564037
0
LINE
8
0
10
163.4235094
20
-115.8564037
11
146.0193762
21
-117.6856518
0
LINE
8
0
10
146.0193762
20
-117.6856518
11
147.7440958
21
-134.0952631
0
LINE
8
0
10
145.967112
20
-117.1883909
11
163.3712452
21
-115.3591428
0
LINE
8
0
10
163.3712452
20
-115.3591428
11
161.6465256
21
-98.9495315
0
LINE
8
0
10
161.6465256
20
-98.9495315
11
144.2423924
21
-100.7787796
0
LINE
8
0
10
144.2423924
20
-100.7787796
11
145.967112
21
-117.1883909
0
LINE
8
0
10
169.1589452
20
-160.6921059
11
186.616316
21
-159.4713676
0
LINE
8
0
10
186.616316
20
-159.4713676
11
186.5698909
21
-158.8074571
0
LINE
8
0
10
175.1507153
20
-143.7328291
11
168.0079634
21
-144.232299
0
LINE
8
0
10
168.0079634
20
-144.232299
11
169.1589452
21
-160.6921059
0
LINE
8
0
10
167.9730852
20
-143.733517
11
175.1507153
21
-143.2316082
0
LINE
8
0
10
185.4160985
20
-142.3074571
11
185.3811351
21
-141.8074571
0
LINE
8
0
10
175.1507153
20
-126.6913168
11
166.8221034
21
-127.2737101
0
LINE
8
0
10
166.8221034
20
-127.2737101
11
167.9730852
21
-143.733517
0
LINE
8
0
10
166.7872252
20
-126.7749282
11
175.1507153
21
-126.190096
0
LINE
8
0
10
184.2273428
20
-125.3074571
11
184.1923793
21
-124.807457
0
LINE
8
0
10
175.1507154
20
-109.6498046
11
165.6362434
21
-110.3151213
0
LINE
8
0
10
165.6362434
20
-110.3151213
11
166.7872252
21
-126.7749282
0
LINE
8
0
10
165.6013652
20
-109.8163393
11
175.1507154
21
-109.1485837
0
LINE
8
0
10
183.038587
20
-108.307457
11
183.0036236
21
-107.807457
0
LINE
8
0
10
175.1507154
20
-92.6082923
11
164.4503834
21
-93.3565324
0
LINE
8
0
10
164.4503834
20
-93.3565324
11
165.6013652
21
-109.8163393
0
LINE
8
0
10
192.6507153
20
-152.9077324
11
193.7118384
21
-152.8706772
0
LINE
8
0
10
204.4323444
20
-139.6641243
11
204.4148707
21
-139.1637431
0
LINE
8
0
10
194.0001982
20
-136.35055
11
192.6507153
21
-136.397675
0
LINE
8
0
10
186.9965242
20
-141.8074571
11
187.0139846
21
-142.3074571
0
LINE
8
0
10
192.6507153
20
-135.8973701
11
194.0089364
21
-135.84994
0
LINE
8
0
10
203.8382388
20
-122.6511646
11
203.8207651
21
-122.1507834
0
LINE
8
0
10
194.2972963
20
-119.3298128
11
192.6507154
21
-119.3873127
0
LINE
8
0
10
186.4028712
20
-124.807457
11
186.4203315
21
-125.3074571
0
LINE
8
0
10
192.6507154
20
-118.8870079
11
194.3060345
21
-118.8292029
0
LINE
8
0
10
203.2441331
20
-105.6382049
11
203.2266594
21
-105.1378236
0
LINE
8
0
10
194.5943943
20
-102.3090757
11
192.6507154
21
-102.3769505
0
LINE
8
0
10
185.809218
20
-107.807457
11
185.8266784
21
-108.307457
0
LINE
8
0
10
192.6507154
20
-101.8766457
11
194.6031324
21
-101.8084657
0
LINE
8
0
10
202.6500274
20
-88.6252452
11
202.5241923
21
-85.0217988
0
LINE
8
0
10
202.5241923
20
-85.0217988
11
185.0348528
21
-85.63254
0
LINE
8
0
10
185.0348528
20
-85.63254
11
185.2330253
21
-91.307457
0
LINE
8
0
10
206.1707783
20
-156.2839807
11
208.6628515
21
-156.2404814
0
LINE
8
0
10
211.1564437
20
-156.1969556
11
223.668113
21
-155.9785636
0
LINE
8
0
10
223.668113
20
-155.9785636
11
223.6138646
21
-152.8706772
0
LINE
8
0
10
212.8933586
20
-139.6641243
11
208.6628515
21
-139.7379681
0
LINE
8
0
10
206.1692593
20
-156.1969556
11
206.1707783
21
-156.2839807
0
LINE
8
0
10
205.8740874
20
-139.2865699
11
208.6628515
21
-139.2378918
0
LINE
8
0
10
211.4533155
20
-139.1891841
11
212.9108323
21
-139.1637431
0
LINE
8
0
10
223.3255048
20
-136.35055
11
223.3167666
21
-135.84994
0
LINE
8
0
10
213.4874642
20
-122.6511646
11
208.6628515
21
-122.7353785
0
LINE
8
0
10
205.8723875
20
-139.1891841
11
205.8740874
21
-139.2865699
0
LINE
8
0
10
205.5773965
20
-122.2891591
11
208.6628515
21
-122.2353023
0
LINE
8
0
10
211.7501872
20
-122.1814126
11
213.5049379
21
-122.1507834
0
LINE
8
0
10
223.0284067
20
-119.3298128
11
223.0196685
21
-118.8292029
0
LINE
8
0
10
214.0815699
20
-105.6382049
11
208.6628515
21
-105.7327889
0
LINE
8
0
10
205.5755158
20
-122.1814126
11
205.5773965
21
-122.2891591
0
LINE
8
0
10
205.2807057
20
-105.2917483
11
208.6628515
21
-105.2327127
0
LINE
8
0
10
212.0470589
20
-105.1736412
11
214.0990436
21
-105.1378236
0
LINE
8
0
10
222.7313087
20
-102.3090757
11
222.7225706
21
-101.8084657
0
LINE
8
0
10
214.6756756
20
-88.6252452
11
208.6628515
21
-88.7301994
0
LINE
8
0
10
205.2786441
20
-105.1736412
11
205.2807057
21
-105.2917483
0
LINE
8
0
10
224.6749877
20
-158.8074571
11
230.7558121
21
-158.8074571
0
LINE
8
0
10
242.1749877
20
-143.7328291
11
242.1749877
21
-143.2316082
0
LINE
8
0
10
231.9096045
20
-142.3074571
11
230.3117184
21
-142.3074571
0
LINE
8
0
10
224.6749877
20
-152.9077324
11
224.6749877
21
-158.8074571
0
LINE
8
0
10
230.3291788
20
-141.8074571
11
231.9445679
21
-141.8074571
0
LINE
8
0
10
242.1749877
20
-126.6913168
11
242.1749877
21
-126.190096
0
LINE
8
0
10
233.0983602
20
-125.3074571
11
230.9053715
21
-125.3074571
0
LINE
8
0
10
224.6749877
20
-135.8973701
11
224.6749877
21
-136.397675
0
LINE
8
0
10
230.9228318
20
-124.807457
11
233.1333237
21
-124.807457
0
LINE
8
0
10
242.1749876
20
-109.6498046
11
242.1749876
21
-109.1485837
0
LINE
8
0
10
234.287116
20
-108.307457
11
231.4990246
21
-108.307457
0
LINE
8
0
10
224.6749876
20
-118.8870079
11
224.6749876
21
-119.3873127
0
LINE
8
0
10
231.516485
20
-107.807457
11
234.3220794
21
-107.807457
0
LINE
8
0
10
242.1749876
20
-92.6082923
11
242.1749876
21
-91.307457
0
LINE
8
0
10
242.1749876
20
-91.307457
11
232.0926777
21
-91.307457
0
LINE
8
0
10
224.6749876
20
-101.8766457
11
224.6749876
21
-102.3769505
0
LINE
8
0
10
216.8378796
20
-176.2616785
11
233.7415816
21
-180.7910118
0
LINE
8
0
10
233.7415816
20
-180.7910118
11
238.0120958
21
-164.8532357
0
LINE
8
0
10
238.0120958
20
-164.8532357
11
221.1083938
21
-160.3239024
0
LINE
8
0
10
221.1083938
20
-160.3239024
11
216.8378796
21
-176.2616785
0
LINE
8
0
10
234.7070064
20
-181.2179604
11
249.862451
21
-189.9679604
0
LINE
8
0
10
249.862451
20
-189.9679604
11
258.112451
21
-175.6785412
0
LINE
8
0
10
258.112451
20
-175.6785412
11
242.9570064
21
-166.9285412
0
LINE
8
0
10
242.9570064
20
-166.9285412
11
234.7070064
21
-181.2179604
0
LINE
8
0
10
250.6420362
20
-190.6508717
11
263.0164049
21
-203.0252404
0
LINE
8
0
10
263.0164049
20
-203.0252404
11
274.6836668
21
-191.3579785
0
LINE
8
0
10
274.6836668
20
-191.3579785
11
262.3092981
21
-178.9836098
0
LINE
8
0
10
262.3092981
20
-178.9836098
11
250.6420362
21
-190.6508717
0
LINE
8
0
10
266.5934821
20
-171.1561351
11
283.9630397
21
-173.2888486
0
LINE
8
0
10
283.9630397
20
-173.2888486
11
285.9738839
21
-156.9118371
0
LINE
8
0
10
285.9738839
20
-156.9118371
11
268.6043263
21
-154.7791236
0
LINE
8
0
10
268.6043263
20
-154.7791236
11
266.5934821
21
-171.1561351
0
LINE
8
0
10
268.6652609
20
-154.2828505
11
286.0348185
21
-156.415564
0
LINE
8
0
10
286.0348185
20
-156.415564
11
288.0456627
21
-140.0385525
0
LINE
8
0
10
288.0456627
20
-140.0385525
11
270.6761051
21
-137.905839
0
LINE
8
0
10
270.6761051
20
-137.905839
11
268.6652609
21
-154.2828505
0
LINE
8
0
10
270.7370398
20
-137.4095659
11
288.1065974
21
-139.5422794
0
LINE
8
0
10
288.1065974
20
-139.5422794
11
290.1174416
21
-123.1652679
0
LINE
8
0
10
290.1174416
20
-123.1652679
11
272.747884
21
-121.0325544
0
LINE
8
0
10
272.747884
20
-121.0325544
11
270.7370398
21
-137.4095659
0
LINE
8
0
10
272.8088186
20
-120.5362814
11
290.1783762
21
-122.6689949
0
LINE
8
0
10
290.1783762
20
-122.6689949
11
292.1892204
21
-106.2919834
0
LINE
8
0
10
292.1892204
20
-106.2919834
11
274.8196628
21
-104.1592699
0
LINE
8
0
10
274.8196628
20
-104.1592699
11
272.8088186
21
-120.5362814
0
LINE
8
0
10
248.6235062
20
-166.0797594
11
266.0276394
21
-167.9090075
0
LINE
8
0
10
266.0276394
20
-167.9090075
11
267.752359
21
-151.4993962
0
LINE
8
0
10
267.752359
20
-151.4993962
11
250.3482258
21
-149.6701481
0
LINE
8
0
10
250.3482258
20
-149.6701481
11
248.6235062
21
-166.0797594
0
LINE
8
0
10
250.4004901
20
-149.1728872
11
267.8046233
21
-151.0021353
0
LINE
8
0
10
267.8046233
20
-151.0021353
11
269.5293429
21
-134.592524
0
LINE
8
0
10
269.5293429
20
-134.592524
11
252.1252097
21
-132.7632759
0
LINE
8
0
10
252.1252097
20
-132.7632759
11
250.4004901
21
-149.1728872
0
LINE
8
0
10
252.177474
20
-132.266015
11
269.5816072
21
-134.0952631
0
LINE
8
0
10
269.5816072
20
-134.0952631
11
271.3063268
21
-117.6856518
0
LINE
8
0
10
271.3063268
20
-117.6856518
11
253.9021936
21
-115.8564037
0
LINE
8
0
10
253.9021936
20
-115.8564037
11
252.177474
21
-132.266015
0
LINE
8
0
10
253.9544578
20
-115.3591428
11
271.358591
21
-117.1883909
0
LINE
8
0
10
271.358591
20
-117.1883909
11
273.0833106
21
-100.7787796
0
LINE
8
0
10
273.0833106
20
-100.7787796
11
255.6791774
21
-98.9495315
0
LINE
8
0
10
255.6791774
20
-98.9495315
11
253.9544578
21
-115.3591428
0
LINE
8
0
10
230.709387
20
-159.4713676
11
248.1667578
21
-160.6921059
0
LINE
8
0
10
248.1667578
20
-160.6921059
11
249.3177396
21
-144.232299
0
LINE
8
0
10
249.3177396
20
-144.232299
11
242.1749877
21
-143.7328291
0
LINE
8
0
10
230.7558121
20
-158.8074571
11
230.709387
21
-159.4713676
0
LINE
8
0
10
242.1749877
20
-143.2316082
11
249.3526178
21
-143.733517
0
LINE
8
0
10
249.3526178
20
-143.733517
11
250.5035996
21
-127.2737101
0
LINE
8
0
10
250.5035996
20
-127.2737101
11
242.1749877
21
-126.6913168
0
LINE
8
0
10
231.9445679
20
-141.8074571
11
231.9096045
21
-142.3074571
0
LINE
8
0
10
242.1749877
20
-126.190096
11
250.5384778
21
-126.7749282
0
LINE
8
0
10
250.5384778
20
-126.7749282
11
251.6894596
21
-110.3151213
0
LINE
8
0
10
251.6894596
20
-110.3151213
11
242.1749876
21
-109.6498046
0
LINE
8
0
10
233.1333237
20
-124.807457
11
233.0983602
21
-125.3074571
0
LINE
8
0
10
242.1749876
20
-109.1485837
11
251.7243378
21
-109.8163393
0
LINE
8
0
10
251.7243378
20
-109.8163393
11
252.8753196
21
-93.3565324
0
LINE
8
0
10
252.8753196
20
-93.3565324
11
242.1749876
21
-92.6082923
0
LINE
8
0
10
234.3220794
20
-107.807457
11
234.287116
21
-108.307457
0
LINE
8
0
10
223.6138646
20
-152.8706772
11
224.6749877
21
-152.9077324
0
LINE
8
0
10
230.3117184
20
-142.3074571
11
230.3291788
21
-141.8074571
0
LINE
8
0
10
224.6749877
20
-136.397675
11
223.3255048
21
-136.35055
0
LINE
8
0
10
212.9108323
20
-139.1637431
11
212.8933586
21
-139.6641243
0
LINE
8
0
10
223.3167666
20
-135.84994
11
224.6749877
21
-135.8973701
0
LINE
8
0
10
230.9053715
20
-125.3074571
11
230.9228318
21
-124.807457
0
LINE
8
0
10
224.6749876
20
-119.3873127
11
223.0284067
21
-119.3298128
0
LINE
8
0
10
213.5049379
20
-122.1507834
11
213.4874642
21
-122.6511646
0
LINE
8
0
10
223.0196685
20
-118.8292029
11
224.6749876
21
-118.8870079
0
LINE
8
0
10
231.4990246
20
-108.307457
11
231.516485
21
-107.807457
0
LINE
8
0
10
224.6749876
20
-102.3769505
11
222.7313087
21
-102.3090757
0
LINE
8
0
10
214.0990436
20
-105.1378236
11
214.0815699
21
-105.6382049
0
LINE
8
0
10
222.7225706
20
-101.8084657
11
224.6749876
21
-101.8766457
0
LINE
8
0
10
232.0926777
20
-91.307457
11
232.2908502
21
-85.63254
0
LINE
8
0
10
232.2908502
20
-85.63254
11
214.8015107
21
-85.0217988
0
LINE
8
0
10
214.8015107
20
-85.0217988
11
214.6756756
21
-88.6252452
0
LINE
8
0
10
193.65759
20
-155.9785636
11
206.1692593
21
-156.1969556
0
LINE
8
0
10
208.6628515
20
-156.2404814
11
211.1549247
21
-156.2839807
0
LINE
8
0
10
211.1549247
20
-156.2839807
11
211.1564437
21
-156.1969556
0
LINE
8
0
10
208.6628515
20
-139.7379681
11
204.4323444
21
-139.6641243
0
LINE
8
0
10
193.7118384
20
-152.8706772
11
193.65759
21
-155.9785636
0
LINE
8
0
10
204.4148707
20
-139.1637431
11
205.8723875
21
-139.1891841
0
LINE
8
0
10
208.6628515
20
-139.2378918
11
211.4516156
21
-139.2865699
0
LINE
8
0
10
211.4516156
20
-139.2865699
11
211.4533155
21
-139.1891841
0
LINE
8
0
10
208.6628515
20
-122.7353785
11
203.8382388
21
-122.6511646
0
LINE
8
0
10
194.0089364
20
-135.84994
11
194.0001982
21
-136.35055
0
LINE
8
0
10
203.8207651
20
-122.1507834
11
205.5755158
21
-122.1814126
0
LINE
8
0
10
208.6628515
20
-122.2353023
11
211.7483065
21
-122.2891591
0
LINE
8
0
10
211.7483065
20
-122.2891591
11
211.7501872
21
-122.1814126
0
LINE
8
0
10
208.6628515
20
-105.7327889
11
203.2441331
21
-105.6382049
0
LINE
8
0
10
194.3060345
20
-118.8292029
11
194.2972963
21
-119.3298128
0
LINE
8
0
10
203.2266594
20
-105.1378236
11
205.2786441
21
-105.1736412
0
LINE
8
0
10
208.6628515
20
-105.2327127
11
212.0449973
21
-105.2917483
0
LINE
8
0
10
212.0449973
20
-105.2917483
11
212.0470589
21
-105.1736412
0
LINE
8
0
10
208.6628515
20
-88.7301994
11
202.6500274
21
-88.6252452
0
LINE
8
0
10
194.6031324
20
-101.8084657
11
194.5943943
21
-102.3090757
0
LINE
8
0
10
186.5698909
20
-158.8074571
11
192.6507153
21
-158.8074571
0
LINE
8
0
10
192.6507153
20
-158.8074571
11
192.6507153
21
-152.9077324
0
LINE
8
0
10
187.0139846
20
-142.3074571
11
185.4160985
21
-142.3074571
0
LINE
8
0
10
175.1507153
20
-143.2316082
11
175.1507153
21
-143.7328291
0
LINE
8
0
10
185.3811351
20
-141.8074571
11
186.9965242
21
-141.8074571
0
LINE
8
0
10
192.6507153
20
-136.397675
11
192.6507153
21
-135.8973701
0
LINE
8
0
10
186.4203315
20
-125.3074571
11
184.2273428
21
-125.3074571
0
LINE
8
0
10
175.1507153
20
-126.190096
11
175.1507153
21
-126.6913168
0
LINE
8
0
10
184.1923793
20
-124.807457
11
186.4028712
21
-124.807457
0
LINE
8
0
10
192.6507154
20
-119.3873127
11
192.6507154
21
-118.8870079
0
LINE
8
0
10
185.8266784
20
-108.307457
11
183.038587
21
-108.307457
0
LINE
8
0
10
175.1507154
20
-109.1485837
11
175.1507154
21
-109.6498046
0
LINE
8
0
10
183.0036236
20
-107.807457
11
185.809218
21
-107.807457
0
LINE
8
0
10
192.6507154
20
-102.3769505
11
192.6507154
21
-101.8766457
0
LINE
8
0
10
185.2330253
20
-91.307457
11
175.1507154
21
-91.307457
0
LINE
8
0
10
175.1507154
20
-91.307457
11
175.1507154
21
-92.6082923
0
LINE
8
0
10
183.5841214
20
-180.7910118
11
200.4878234
21
-176.2616785
0
LINE
8
0
10
200.4878234
20
-176.2616785
11
196.2173092
21
-160.3239024
0
LINE
8
0
10
196.2173092
20
-160.3239024
11
179.3136072
21
-164.8532357
0
LINE
8
0
10
179.3136072
20
-164.8532357
11
183.5841214
21
-180.7910118
0
LINE
8
0
10
167.463252
20
-189.9679604
11
182.6186966
21
-181.2179604
0
LINE
8
0
10
182.6186966
20
-181.2179604
11
174.3686966
21
-166.9285412
0
LINE
8
0
10
174.3686966
20
-166.9285412
11
159.213252
21
-175.6785412
0
LINE
8
0
10
159.213252
20
-175.6785412
11
167.463252
21
-189.9679604
0
LINE
8
0
10
154.3092981
20
-203.0252404
11
166.6836668
21
-190.6508717
0
LINE
8
0
10
166.6836668
20
-190.6508717
11
155.0164049
21
-178.9836098
0
LINE
8
0
10
155.0164049
20
-178.9836098
11
142.6420362
21
-191.3579785
0
LINE
8
0
10
142.6420362
20
-191.3579785
11
154.3092981
21
-203.0252404
0
ENDSEC
0
EOF