0
SECTION
2
HEADER
9
$INSUNITS
70
4
0
ENDSEC
0
SECTION
2
TABLES
0
TABLE
2
LTYPE
0
LTYPE
72
65
70
64
2
CONTINUOUS
3
______
73
0
40
0
0
ENDTAB
0
TABLE
2
LAYER
0
ENDTAB
0
ENDSEC
0
SECTION
2
ENTITIES
0
LINE
8
0
10
265.2004627
20
-172.2444811
11
285.0513858
21
-174.681868
0
LINE
8
0
10
285.0513858
20
-174.681868
11
293.5822398
21
-105.2036374
0
LINE
8
0
10
265.5841886
20
-169.1192843
11
265.2004627
21
-172.2444811
0
LINE
8
0
10
293.5822398
20
-105.2036374
11
274.1262082
21
-102.8147371
0
LINE
8
0
10
247.2496932
20
-167.1922512
11
265.5841886
21
-169.1192843
0
LINE
8
0
10
247.8038521
20
-161.9197814
11
247.2496932
21
-167.1922512
0
LINE
8
0
10
252.3755656
20
-118.422833
11
254.5666856
21
-97.5757186
0
LINE
8
0
10
274.1262082
20
-102.8147371
11
274.4571236
21
-99.6662878
0
LINE
8
0
10
274.4571236
20
-99.6662878
11
254.5666856
21
-97.5757186
0
LINE
8
0
10
229.3752363
20
-160.631127
11
247.8038521
21
-161.9197814
0
LINE
8
0
10
229.8152947
20
-154.3379978
11
229.3752363
21
-160.631127
0
LINE
8
0
10
252.3755656
20
-118.422833
11
252.8840973
21
-111.1504899
0
LINE
8
0
10
252.8840973
20
-111.1504899
11
253.0236103
21
-109.1553619
0
LINE
8
0
10
233.0723293
20
-107.7602324
11
232.9328163
21
-109.7553604
0
LINE
8
0
10
232.9328163
20
-109.7553604
11
232.466202
21
-116.428257
0
LINE
8
0
10
253.0236103
20
-109.1553619
11
254.2094703
21
-92.196773
0
LINE
8
0
10
254.2094703
20
-92.196773
11
234.2581893
21
-90.8016435
0
LINE
8
0
10
234.2581893
20
-90.8016435
11
233.0723293
21
-107.7602324
0
LINE
8
0
10
212.4496675
20
-153.7315768
11
229.8152947
21
-154.3379978
0
LINE
8
0
10
232.466202
20
-116.428257
11
232.9206227
21
-103.4153515
0
LINE
8
0
10
232.9206227
20
-103.4153515
11
232.9904216
21
-101.4165699
0
LINE
8
0
10
232.9904216
20
-101.4165699
11
233.5837131
21
-84.4269258
0
LINE
8
0
10
233.5837131
20
-84.4269258
11
213.5958965
21
-83.7289359
0
LINE
8
0
10
213.5958965
20
-83.7289359
11
213.4619808
21
-87.5637781
0
LINE
8
0
10
193.9007153
20
-157.2329978
11
212.3829188
21
-157.5556059
0
LINE
8
0
10
212.3829188
20
-157.5556059
11
212.4496675
21
-153.7315768
0
LINE
8
0
10
213.4619808
20
-87.5637781
11
193.6076332
21
-87.2172191
0
LINE
8
0
10
193.6076332
20
-87.2172191
11
193.5580567
21
-90.057457
0
LINE
8
0
10
173.9007153
20
-160.0574571
11
192.3820674
21
-160.0574571
0
LINE
8
0
10
193.9007153
20
-159.6505366
11
193.9007153
21
-157.2329978
0
LINE
8
0
10
173.9007153
20
-160.0574571
11
173.9007153
21
-124.0574571
0
LINE
8
0
10
173.9007154
20
-124.0574571
11
173.9007154
21
-90.057457
0
LINE
8
0
10
193.5580567
20
-90.057457
11
173.9007154
21
-90.057457
0
LINE
8
0
10
183.6450154
20
-182.0687906
11
202.0187545
21
-177.145562
0
LINE
8
0
10
202.0187545
20
-177.145562
11
197.1011926
21
-158.7929713
0
LINE
8
0
10
197.1011926
20
-158.7929713
11
193.9007153
21
-159.6505366
0
LINE
8
0
10
192.3820674
20
-160.0574571
11
177.7826761
21
-163.9693522
0
LINE
8
0
10
177.7826761
20
-163.9693522
11
180.9688637
21
-175.860366
0
LINE
8
0
10
168.002037
20
-191.1002684
11
183.6450154
21
-182.0687906
0
LINE
8
0
10
180.9688637
20
-175.860366
11
174.8262283
21
-165.2210095
0
LINE
8
0
10
174.8262283
20
-165.2210095
11
157.5057203
21
-175.2210095
0
LINE
8
0
10
157.5057203
20
-175.2210095
11
163.6311815
21
-185.8306195
0
LINE
8
0
10
154.3092981
20
-204.7930073
11
168.002037
21
-191.1002684
0
LINE
8
0
10
163.6311815
20
-185.8306195
11
155.0164049
21
-177.2158429
0
LINE
8
0
10
155.0164049
20
-177.2158429
11
140.8742693
21
-191.3579785
0
LINE
8
0
10
140.8742693
20
-191.3579785
11
154.3092981
21
-204.7930073
0
ENDSEC
0
EOF